<svg width="147" height="146" viewBox="0 0 147 146" fill="none" xmlns="http://www.w3.org/2000/svg">
<circle cx="73.5928" cy="73.2234" r="24.3211" fill="#100F0F" stroke="#100F0F" stroke-width="1.5442"/>
<path d="M73.0001 56.1301L76.5002 69.1299L89.5001 72.6301L76.5002 76.1303L73.0001 89.1301L69.4999 76.1303L56.5001 72.6301L69.4999 69.1299L73.0001 56.1301Z" fill="white"/>
<path d="M60.1782 8.13555C61.0393 7.95814 61.8482 7.94519 62.605 8.09671C63.3499 8.25065 63.98 8.56352 64.4953 9.03531C65.0106 9.5071 65.3519 10.1193 65.5193 10.8718L62.8651 11.4186C62.7252 10.9187 62.4657 10.554 62.0864 10.3248C61.6954 10.0979 61.2167 10.0428 60.6505 10.1595C60.0725 10.2785 59.6463 10.5078 59.3719 10.8471C59.0999 11.1983 59.0101 11.598 59.1025 12.0463C59.1778 12.4119 59.3518 12.6897 59.6246 12.8794C59.8973 13.0691 60.2181 13.1937 60.5869 13.2529C60.9464 13.3264 61.438 13.385 62.0619 13.4286C62.9126 13.4993 63.6147 13.5944 64.1681 13.7141C64.7121 13.8479 65.2144 14.1072 65.6749 14.4919C66.126 14.8908 66.4317 15.4796 66.5921 16.2581C66.7428 16.9895 66.6912 17.6642 66.4373 18.2821C66.1834 18.9001 65.7553 19.4187 65.1531 19.8379C64.5533 20.2689 63.8287 20.5719 62.9793 20.7469C61.7054 21.0094 60.6088 20.9094 59.6896 20.447C58.7611 19.9989 58.1413 19.2289 57.8303 18.1371L60.5552 17.5757C60.6663 17.9955 60.9209 18.3058 61.3189 18.5066C61.7075 18.7217 62.179 18.7721 62.7334 18.6579C63.2171 18.5582 63.5808 18.3542 63.8247 18.0457C64.0568 17.7397 64.1242 17.3507 64.027 16.8789C63.9589 16.5486 63.7956 16.2932 63.5371 16.1128C63.2693 15.9467 62.9615 15.8256 62.6138 15.7497C62.2568 15.688 61.7652 15.6294 61.1389 15.574C60.2881 15.5033 59.5849 15.4023 59.029 15.2709C58.4732 15.1395 57.9638 14.8755 57.5009 14.479C57.038 14.0825 56.7276 13.5009 56.5696 12.7341C56.4335 12.0735 56.4782 11.4249 56.7036 10.7882C56.929 10.1515 57.3368 9.59403 57.9269 9.11584C58.5195 8.64945 59.2699 8.32269 60.1782 8.13555Z" fill="#505050"/>
<path d="M51.7261 21.9135L50.427 19.0311L46.5565 20.7755L45.7325 18.9473L49.6031 17.2029L48.2299 14.1559L43.8652 16.123L43.019 14.2453L49.6895 11.239L54.8781 22.7519L48.2076 25.7582L47.3614 23.8806L51.7261 21.9135Z" fill="#505050"/>
<path d="M41.6403 27.5233L39.7724 24.9725L36.3471 27.4808L35.1623 25.8629L38.5877 23.3546L36.613 20.6581L32.7505 23.4866L31.5337 21.8249L37.4369 17.5021L44.8977 27.6906L38.9945 32.0134L37.7777 30.3517L41.6403 27.5233Z" fill="#505050"/>
<path d="M18.4908 40.8718L21.1917 36.6375L19.6129 34.6447L21.0411 32.4058L29.249 43.02L27.6653 45.5026L14.5802 42.5344L16.0181 40.2802L18.4908 40.8718ZM20.5658 41.3811L25.9946 42.6798L22.5284 38.3045L20.5658 41.3811Z" fill="#505050"/>
<path d="M13.4549 50.752L12.0396 54.6587L10.1542 53.9756L12.431 47.691L24.287 51.9862L23.4255 54.3641L13.4549 50.752Z" fill="#505050"/>
<path d="M10.4032 62.1989L9.73251 66.2996L7.75348 65.9759L8.83236 59.3792L21.277 61.4145L20.8688 63.9105L10.4032 62.1989Z" fill="#505050"/>
<path d="M23.8459 92.7761L15.44 95.5517C14.2734 95.9369 13.2528 95.8998 12.3781 95.4402C11.5149 94.977 10.8963 94.1792 10.5225 93.047C10.1448 91.9033 10.1706 90.8675 10.5998 89.9394C11.0327 89.0227 11.8439 88.368 13.0333 87.9752L13.8264 90.3769C13.3155 90.5583 12.9549 90.8106 12.7445 91.1337C12.5379 91.4683 12.5082 91.8586 12.6555 92.3046C12.799 92.7392 13.0457 93.0255 13.3957 93.1636C13.7458 93.3017 14.1609 93.2915 14.6413 93.1329L23.0472 90.3572L23.8459 92.7761Z" fill="#505050"/>
<path d="M17.7402 108.42C17.0987 107.415 16.7425 106.342 16.6716 105.201C16.6071 104.071 16.8324 102.991 17.3473 101.962C17.8788 100.937 18.6674 100.091 19.7131 99.4231C20.7587 98.7556 21.8533 98.3998 22.9968 98.3557C24.1468 98.3218 25.221 98.572 26.2194 99.1063C27.2242 99.6508 28.0475 100.426 28.689 101.431C29.3306 102.436 29.6836 103.503 29.748 104.634C29.8189 105.775 29.5904 106.849 29.0625 107.858C28.5411 108.877 27.7576 109.72 26.712 110.387C25.6663 111.055 24.5667 111.414 23.413 111.464C22.2695 111.508 21.1986 111.263 20.2002 110.729C19.2018 110.195 18.3818 109.425 17.7402 108.42ZM20.1158 106.903C20.6601 107.756 21.3786 108.255 22.2711 108.4C23.1701 108.554 24.0866 108.334 25.0206 107.737C25.9647 107.135 26.5507 106.396 26.7785 105.522C27.023 104.652 26.8731 103.79 26.3287 102.937C25.7779 102.074 25.058 101.562 24.1692 101.401C23.2868 101.25 22.3685 101.479 21.4142 102.088C20.4701 102.691 19.8758 103.427 19.6313 104.298C19.4034 105.172 19.5649 106.04 20.1158 106.903Z" fill="#505050"/>
<path d="M35.022 118.357C35.4564 118.935 35.647 119.591 35.5938 120.327C35.5406 121.062 35.2617 121.705 34.7572 122.256C34.3015 122.753 33.7744 123.078 33.1758 123.232C32.5943 123.386 31.9751 123.357 31.3181 123.147C30.661 122.937 30.0173 122.543 29.3869 121.965L25.378 118.291L33.898 108.995L37.7337 112.51C38.3642 113.088 38.8122 113.687 39.0779 114.306C39.3524 114.933 39.4383 115.535 39.3355 116.11C39.2416 116.694 38.9831 117.217 38.5599 117.679C38.0635 118.22 37.502 118.539 36.8754 118.634C36.2576 118.738 35.6398 118.645 35.022 118.357ZM32.2472 114.54L33.952 116.102C34.3959 116.509 34.8273 116.724 35.246 116.749C35.6729 116.764 36.0573 116.586 36.399 116.213C36.7408 115.84 36.8854 115.441 36.8328 115.017C36.7803 114.593 36.532 114.178 36.0881 113.771L34.3833 112.209L32.2472 114.54ZM30.5121 120.203C30.9649 120.618 31.4133 120.833 31.8572 120.848C32.31 120.87 32.7154 120.687 33.0734 120.296C33.4396 119.896 33.5913 119.464 33.5283 118.997C33.4735 118.522 33.2197 118.077 32.7669 117.662L30.9289 115.978L28.6341 118.482L30.5121 120.203Z" fill="#505050"/>
<path d="M67.3033 126.151L64.6199 138.472L62.1486 137.934L63.2904 132.691L58.0124 131.542L56.8706 136.784L54.3993 136.246L57.0827 123.925L59.554 124.463L58.4506 129.529L63.7286 130.679L64.832 125.613L67.3033 126.151Z" fill="#505050"/>
<path d="M73.3177 128.296L73.3727 131.457L77.6175 131.383L77.6524 133.389L73.4076 133.462L73.4657 136.804L78.2524 136.721L78.2882 138.78L70.9726 138.907L70.7531 126.281L78.0687 126.154L78.1045 128.213L73.3177 128.296Z" fill="#505050"/>
<path d="M91.0497 136.492L87.1652 132.394L86.008 132.681L87.1924 137.45L84.7377 138.06L81.6984 125.822L86.2921 124.681C87.2389 124.446 88.0876 124.415 88.838 124.588C89.5856 124.75 90.1941 125.077 90.6636 125.568C91.1419 126.045 91.4682 126.634 91.6424 127.336C91.8427 128.142 91.7903 128.931 91.4853 129.702C91.1774 130.461 90.5922 131.077 89.7298 131.552L93.8901 135.787L91.0497 136.492ZM85.5508 130.84L87.6022 130.331C88.2685 130.165 88.7261 129.884 88.975 129.487C89.221 129.079 89.2729 128.588 89.1306 128.015C88.9913 127.454 88.7202 127.062 88.3175 126.84C87.9118 126.605 87.3758 126.571 86.7096 126.736L84.6582 127.246L85.5508 130.84Z" fill="#505050"/>
<path d="M97.5393 122.797L98.9695 125.616L102.756 123.696L103.663 125.484L99.8767 127.405L101.389 130.385L105.658 128.22L106.59 130.056L100.065 133.366L94.3519 122.104L100.877 118.794L101.809 120.631L97.5393 122.797Z" fill="#505050"/>
<path d="M127.685 106.177L124.885 110.347L126.417 112.376L124.936 114.581L116.98 103.777L118.622 101.332L131.633 104.607L130.143 106.827L127.685 106.177ZM125.622 105.619L120.226 104.193L123.588 108.649L125.622 105.619Z" fill="#505050"/>
<path d="M137.578 89.32L136.757 91.7123L126.713 94.3209L134.899 97.1293L134.078 99.5216L122.133 95.4233L122.954 93.031L133.015 90.4283L124.813 87.6141L125.633 85.2218L137.578 89.32Z" fill="#505050"/>
<path d="M126.652 77.4089C126.737 76.0867 127.07 74.9434 127.65 73.9789C128.232 73.0023 129.021 72.2744 130.017 71.7951C131.002 71.303 132.125 71.0973 133.387 71.1781C134.649 71.2588 135.737 71.6061 136.652 72.2197C137.554 72.8206 138.232 73.6424 138.684 74.6851C139.137 75.7158 139.321 76.8922 139.237 78.2143L138.955 82.6134L126.371 81.8079L126.652 77.4089ZM137.086 78.1672C137.17 76.845 136.875 75.8003 136.2 75.033C135.525 74.2657 134.532 73.8401 133.222 73.7562C131.912 73.6724 130.867 73.9675 130.088 74.6418C129.297 75.3152 128.859 76.313 128.774 77.6352L128.66 79.42L136.971 79.952L137.086 78.1672Z" fill="#505050"/>
<path d="M128.82 41.511L131.117 45.9771L133.634 45.6171L134.849 47.9787L121.545 49.7225L120.198 47.1039L129.353 37.2953L130.576 39.673L128.82 41.511ZM127.334 43.047L123.478 47.0825L129.004 46.2922L127.334 43.047Z" fill="#505050"/>
<path d="M113.422 31.5778C113.93 31.1339 114.513 30.8401 115.171 30.6964C115.821 30.5436 116.508 30.6068 117.232 30.8857C117.948 31.1556 118.647 31.6804 119.329 32.4601L120.72 34.0513L124.365 30.8643L126.03 32.7683L116.537 41.0689L113.481 37.5737C112.839 36.8393 112.419 36.1027 112.221 35.3639C112.023 34.6251 112.035 33.9346 112.257 33.2922C112.471 32.6408 112.86 32.0694 113.422 31.5778ZM117.864 33.8855C117.404 33.3597 116.945 33.0729 116.487 33.0251C116.02 32.9853 115.569 33.1557 115.134 33.5362C114.209 34.3449 114.199 35.266 115.103 36.2996L116.423 37.8092L119.184 35.3951L117.864 33.8855Z" fill="#505050"/>
<path d="M102.863 23.5039C103.255 22.9552 103.755 22.5353 104.363 22.2442C104.961 21.9461 105.644 21.8497 106.413 21.9548C107.171 22.053 107.972 22.4032 108.815 23.0054L110.535 24.2344L113.35 20.2952L115.407 21.7657L108.076 32.0253L104.298 29.3258C103.504 28.7586 102.926 28.1382 102.564 27.4647C102.201 26.7912 102.055 26.1163 102.123 25.4401C102.182 24.7569 102.429 24.1115 102.863 23.5039ZM107.716 24.7294C107.148 24.3232 106.635 24.1495 106.179 24.2082C105.715 24.2767 105.316 24.5461 104.98 25.0165C104.265 26.016 104.467 26.9149 105.584 27.7132L107.215 28.8791L109.348 25.8953L107.716 24.7294Z" fill="#505050"/>
<path d="M99.4101 14.4105L95.6023 12.7473L96.405 10.9096L102.531 13.5853L97.4829 25.141L95.1652 24.1285L99.4101 14.4105Z" fill="#505050"/>
<path d="M78.7279 19.4834L84.5625 12.2928L85.4483 7.99312L87.9255 8.50349L87.0397 12.8032L89.5745 21.7181L86.7788 21.1421L85.2876 14.9508L81.4882 20.0521L78.7279 19.4834Z" fill="#505050"/>
</svg>
