<svg width="205" height="204" viewBox="0 0 205 204" fill="none" xmlns="http://www.w3.org/2000/svg">
<circle cx="102.228" cy="102.776" r="34.5599" fill="black" stroke="black" stroke-width="2.19428"/>
<path opacity="0.9" d="M123.688 104.489C124.331 103.846 124.331 102.804 123.688 102.162L113.215 91.6884C112.572 91.0457 111.53 91.0457 110.888 91.6884C110.245 92.3311 110.245 93.3731 110.888 94.0158L120.197 103.325L110.888 112.635C110.245 113.278 110.245 114.32 110.888 114.962C111.53 115.605 112.572 115.605 113.215 114.962L123.688 104.489ZM78.6389 104.971H122.524V101.68H78.6389V104.971Z" fill="#72FDF5"/>
<path d="M81.0199 11.3965C82.2435 11.1444 83.393 11.126 84.4683 11.3413C85.5269 11.56 86.4222 12.0046 87.1545 12.675C87.8867 13.3454 88.3717 14.2153 88.6095 15.2846L84.838 16.0616C84.6392 15.3512 84.2703 14.8331 83.7314 14.5073C83.1758 14.1849 82.4956 14.1066 81.691 14.2724C80.8697 14.4416 80.2641 14.7673 79.8742 15.2496C79.4877 15.7486 79.3601 16.3165 79.4913 16.9535C79.5984 17.4731 79.8457 17.8678 80.2332 18.1374C80.6208 18.407 81.0766 18.5839 81.6007 18.6682C82.1115 18.7726 82.8101 18.8558 83.6965 18.9178C84.9054 19.0183 85.9031 19.1535 86.6895 19.3234C87.4626 19.5136 88.1763 19.8821 88.8306 20.4287C89.4716 20.9956 89.906 21.8322 90.134 22.9385C90.3481 23.9778 90.2748 24.9365 89.914 25.8146C89.5532 26.6927 88.9449 27.4296 88.0891 28.0253C87.2368 28.6377 86.2072 29.0683 85.0003 29.3169C83.19 29.6899 81.6318 29.5479 80.3257 28.8909C79.0063 28.2541 78.1256 27.1599 77.6836 25.6085L81.5557 24.8107C81.7135 25.4072 82.0752 25.8482 82.6408 26.1336C83.193 26.4392 83.863 26.5108 84.6508 26.3485C85.3381 26.2069 85.855 25.9169 86.2015 25.4786C86.5313 25.0437 86.6271 24.491 86.4889 23.8205C86.3923 23.3512 86.1602 22.9884 85.7929 22.7321C85.4123 22.4959 84.9749 22.3239 84.4809 22.216C83.9736 22.1284 83.275 22.0451 82.385 21.9664C81.1761 21.866 80.1768 21.7224 79.3869 21.5356C78.5971 21.3489 77.8733 20.9738 77.2155 20.4104C76.5577 19.8469 76.1166 19.0205 75.8922 17.9309C75.6988 16.9922 75.7622 16.0705 76.0826 15.1658C76.4029 14.2611 76.9823 13.4689 77.8209 12.7894C78.6629 12.1267 79.7292 11.6624 81.0199 11.3965Z" fill="black"/>
<path d="M69.0973 30.9463L67.2515 26.8505L61.7515 29.3293L60.5806 26.7314L66.0807 24.2526L64.1293 19.9228L57.9272 22.718L56.7247 20.0499L66.2035 15.778L73.5764 32.1377L64.0977 36.4095L62.8952 33.7415L69.0973 30.9463Z" fill="black"/>
<path d="M54.8412 38.8736L52.187 35.249L47.3197 38.8132L45.6362 36.5142L50.5035 32.95L47.6976 29.1183L42.2089 33.1375L40.4799 30.7764L48.8682 24.6338L59.4699 39.1114L51.0816 45.254L49.3526 42.8928L54.8412 38.8736Z" fill="black"/>
<path d="M22.0518 57.7288L25.8898 51.7121L23.6463 48.8803L25.6757 45.6988L37.339 60.7814L35.0887 64.3092L16.4949 60.0914L18.5382 56.8882L22.0518 57.7288ZM25.0004 58.4526L32.7146 60.298L27.7892 54.0807L25.0004 58.4526Z" fill="black"/>
<path d="M14.9367 71.6856L12.9256 77.237L10.2465 76.2664L13.4818 67.336L30.3289 73.4394L29.1047 76.8184L14.9367 71.6856Z" fill="black"/>
<path d="M10.62 87.8763L9.66702 93.7033L6.85486 93.2434L8.38792 83.8695L26.0716 86.7616L25.4915 90.3085L10.62 87.8763Z" fill="black"/>
<path d="M29.7057 131.127L17.7611 135.071C16.1035 135.618 14.6532 135.565 13.4103 134.912C12.1836 134.254 11.3046 133.12 10.7734 131.512C10.2368 129.886 10.2734 128.414 10.8833 127.096C11.4985 125.793 12.6512 124.863 14.3413 124.305L15.4682 127.717C14.7423 127.975 14.2298 128.334 13.9309 128.793C13.6373 129.268 13.5951 129.823 13.8044 130.457C14.0083 131.074 14.3589 131.481 14.8563 131.677C15.3536 131.874 15.9436 131.859 16.6261 131.634L28.5708 127.689L29.7057 131.127Z" fill="black"/>
<path d="M20.985 153.262C20.0733 151.834 19.5671 150.309 19.4664 148.688C19.3749 147.082 19.6949 145.548 20.4266 144.086C21.1819 142.629 22.3025 141.426 23.7883 140.478C25.2742 139.529 26.8296 139.024 28.4545 138.961C30.0886 138.913 31.615 139.268 33.0337 140.028C34.4616 140.801 35.6314 141.902 36.543 143.33C37.4547 144.759 37.9563 146.276 38.0478 147.882C38.1485 149.503 37.8238 151.03 37.0738 152.463C36.3329 153.911 35.2195 155.109 33.7337 156.057C32.2478 157.006 30.6852 157.516 29.0459 157.588C27.421 157.651 25.8992 157.302 24.4805 156.543C23.0618 155.784 21.8966 154.69 20.985 153.262ZM24.3606 151.107C25.1341 152.319 26.155 153.028 27.4233 153.233C28.7007 153.453 30.0031 153.14 31.3302 152.292C32.6718 151.436 33.5045 150.387 33.8282 149.145C34.1756 147.908 33.9626 146.683 33.1891 145.471C32.4063 144.245 31.3834 143.518 30.1204 143.288C28.8665 143.074 27.5616 143.399 26.2056 144.265C24.864 145.121 24.0195 146.168 23.6721 147.405C23.3484 148.647 23.5778 149.881 24.3606 151.107Z" fill="black"/>
<path d="M45.4717 167.299C46.0889 168.12 46.3597 169.053 46.2842 170.098C46.2086 171.143 45.8123 172.057 45.0954 172.839C44.4478 173.545 43.6988 174.008 42.8483 174.227C42.022 174.444 41.1421 174.404 40.2085 174.106C39.2749 173.807 38.3601 173.247 37.4643 172.426L31.7678 167.206L43.8745 153.996L49.325 158.991C50.2208 159.812 50.8575 160.662 51.235 161.542C51.6251 162.434 51.7472 163.288 51.6011 164.106C51.4677 164.936 51.1003 165.679 50.499 166.335C49.7937 167.104 48.9958 167.557 48.1053 167.693C47.2275 167.84 46.3496 167.709 45.4717 167.299ZM41.5287 161.874L43.9512 164.095C44.5821 164.673 45.195 164.979 45.7901 165.014C46.3967 165.036 46.9428 164.782 47.4285 164.252C47.9141 163.722 48.1196 163.156 48.0449 162.553C47.9702 161.951 47.6174 161.361 46.9866 160.783L44.5641 158.562L41.5287 161.874ZM39.0631 169.922C39.7066 170.512 40.3437 170.817 40.9745 170.838C41.618 170.871 42.194 170.609 42.7028 170.054C43.2232 169.486 43.4386 168.871 43.3492 168.209C43.2713 167.534 42.9107 166.902 42.2672 166.312L39.6555 163.918L36.3947 167.476L39.0631 169.922Z" fill="black"/>
<path d="M91.1489 178.273L87.3358 195.781L83.8241 195.017L85.4466 187.567L77.9467 185.933L76.3242 193.383L72.8125 192.618L76.6256 175.11L80.1373 175.875L78.5694 183.074L86.0694 184.707L87.6372 177.508L91.1489 178.273Z" fill="black"/>
<path d="M99.5992 181.312L99.6773 185.804L105.709 185.699L105.759 188.548L99.7269 188.653L99.8094 193.402L106.611 193.283L106.662 196.209L96.2669 196.39L95.9549 178.449L106.35 178.268L106.401 181.194L99.5992 181.312Z" fill="black"/>
<path d="M124.702 192.971L119.182 187.147L117.537 187.555L119.22 194.332L115.732 195.198L111.414 177.808L117.941 176.187C119.287 175.853 120.492 175.809 121.559 176.056C122.621 176.286 123.486 176.75 124.153 177.448C124.833 178.126 125.296 178.963 125.544 179.959C125.828 181.105 125.754 182.226 125.321 183.321C124.883 184.4 124.051 185.276 122.826 185.951L128.738 191.969L124.702 192.971ZM116.888 184.939L119.803 184.215C120.749 183.98 121.4 183.581 121.753 183.017C122.103 182.436 122.177 181.739 121.975 180.925C121.777 180.128 121.391 179.571 120.819 179.255C120.243 178.922 119.481 178.873 118.534 179.108L115.619 179.832L116.888 184.939Z" fill="black"/>
<path d="M133.835 173.543L135.867 177.549L141.247 174.82L142.536 177.362L137.156 180.091L139.305 184.326L145.372 181.249L146.696 183.858L137.423 188.562L129.306 172.559L138.578 167.855L139.902 170.465L133.835 173.543Z" fill="black"/>
<path d="M176.512 150.067L172.534 155.992L174.71 158.876L172.606 162.009L161.301 146.656L163.634 143.182L182.123 147.836L180.005 150.99L176.512 150.067ZM173.581 149.274L165.913 147.248L170.691 153.579L173.581 149.274Z" fill="black"/>
<path d="M190.522 126.211L189.355 129.611L175.083 133.317L186.714 137.308L185.548 140.707L168.575 134.884L169.741 131.484L184.038 127.786L172.382 123.787L173.549 120.387L190.522 126.211Z" fill="black"/>
<path d="M174.975 109.395C175.095 107.516 175.568 105.892 176.393 104.521C177.219 103.133 178.34 102.099 179.756 101.418C181.155 100.719 182.752 100.426 184.545 100.541C186.338 100.656 187.884 101.149 189.183 102.021C190.466 102.875 191.429 104.043 192.072 105.525C192.715 106.989 192.977 108.661 192.857 110.539L192.457 116.791L174.575 115.646L174.975 109.395ZM189.8 110.472C189.92 108.594 189.501 107.109 188.542 106.019C187.583 104.928 186.172 104.324 184.31 104.205C182.449 104.085 180.964 104.505 179.857 105.463C178.732 106.42 178.11 107.838 177.99 109.717L177.827 112.253L189.638 113.009L189.8 110.472Z" fill="black"/>
<path d="M178.1 58.6034L181.365 64.9497L184.941 64.4381L186.667 67.7939L167.763 70.2718L165.849 66.5507L178.859 52.6129L180.596 55.9916L178.1 58.6034ZM175.99 60.786L170.51 66.5204L178.362 65.3973L175.99 60.786Z" fill="black"/>
<path d="M156.278 44.5728C156.999 43.942 157.828 43.5244 158.763 43.3203C159.687 43.1033 160.664 43.1929 161.692 43.5893C162.71 43.9728 163.703 44.7186 164.672 45.8266L166.649 48.0876L171.828 43.5589L174.194 46.2644L160.705 58.0594L156.362 53.0928C155.449 52.0493 154.852 51.0026 154.571 49.9528C154.289 48.903 154.307 47.9217 154.623 47.009C154.927 46.0833 155.479 45.2713 156.278 44.5728ZM162.589 47.852C161.936 47.1048 161.284 46.6972 160.633 46.6294C159.97 46.5728 159.329 46.8149 158.711 47.3557C157.397 48.5048 157.382 49.8137 158.666 51.2824L160.542 53.4275L164.465 49.9971L162.589 47.852Z" fill="black"/>
<path d="M141.345 33.165C141.902 32.3853 142.613 31.7886 143.476 31.375C144.326 30.9514 145.297 30.8143 146.389 30.9638C147.467 31.1033 148.605 31.6009 149.803 32.4567L152.246 34.203L156.247 28.6054L159.171 30.6951L148.752 45.2737L143.385 41.4378C142.257 40.6318 141.435 39.7503 140.92 38.7932C140.405 37.8361 140.196 36.8772 140.294 35.9163C140.378 34.9454 140.728 34.0283 141.345 33.165ZM148.241 34.9064C147.434 34.3292 146.706 34.0824 146.057 34.1658C145.399 34.2631 144.83 34.646 144.353 35.3143C143.338 36.7346 143.624 38.0119 145.211 39.1463L147.53 40.8031L150.56 36.5631L148.241 34.9064Z" fill="black"/>
<path d="M136.515 20.2866L131.104 17.9232L132.245 15.3119L140.949 19.114L133.776 35.5344L130.483 34.0958L136.515 20.2866Z" fill="black"/>
<path d="M107.209 27.5217L115.5 17.304L116.759 11.1942L120.279 11.9194L119.02 18.0293L122.622 30.6972L118.649 29.8787L116.53 21.081L111.131 28.3298L107.209 27.5217Z" fill="black"/>
</svg>
